<svg width="16" height="16" viewBox="0 0 16 16" fill="none" xmlns="http://www.w3.org/2000/svg">
<path d="M8.39059 1.72404C8.1406 1.47397 7.80151 1.33345 7.44792 1.33337H2.66659C2.31296 1.33337 1.97382 1.47385 1.72378 1.7239C1.47373 1.97395 1.33325 2.31309 1.33325 2.66671V7.44804C1.33333 7.80163 1.47385 8.14072 1.72392 8.39071L7.52659 14.1934C7.82959 14.4945 8.23942 14.6635 8.66659 14.6635C9.09375 14.6635 9.50358 14.4945 9.80659 14.1934L14.1933 9.80671C14.4943 9.5037 14.6633 9.09388 14.6633 8.66671C14.6633 8.23954 14.4943 7.82972 14.1933 7.52671L8.39059 1.72404Z" stroke="white" stroke-width="1.6654" stroke-linecap="round" stroke-linejoin="round"/>
<path d="M4.99983 5.33278C5.18378 5.33278 5.33291 5.18366 5.33291 4.99971C5.33291 4.81575 5.18378 4.66663 4.99983 4.66663C4.81587 4.66663 4.66675 4.81575 4.66675 4.99971C4.66675 5.18366 4.81587 5.33278 4.99983 5.33278Z" fill="white" stroke="white" stroke-width="1.6654" stroke-linecap="round" stroke-linejoin="round"/>
</svg>
