<svg width="24" height="24" viewBox="0 0 24 24" fill="none" xmlns="http://www.w3.org/2000/svg">
<path d="M20.0007 9.99976C20.0007 15.9998 12.0007 21.9998 12.0007 21.9998C12.0007 21.9998 4.00073 15.9998 4.00073 9.99976C4.00073 7.87802 4.84359 5.84319 6.34388 4.3429C7.84417 2.84261 9.879 1.99976 12.0007 1.99976C14.1225 1.99976 16.1573 2.84261 17.6576 4.3429C19.1579 5.84319 20.0007 7.87802 20.0007 9.99976Z" stroke="#FF7F00" stroke-width="1.5" stroke-linecap="round" stroke-linejoin="round"/>
<path d="M12 13C13.6569 13 15 11.6569 15 10C15 8.34315 13.6569 7 12 7C10.3431 7 9 8.34315 9 10C9 11.6569 10.3431 13 12 13Z" stroke="#FF7F00" stroke-width="1.5" stroke-linecap="round" stroke-linejoin="round"/>
</svg>
